<svg id="Layer_1" data-name="Layer 1" xmlns="http://www.w3.org/2000/svg" viewBox="0 0 50 33.49"><defs><style>.cls-1{fill:#f7e8c6;}.cls-2{fill:#eac89f;}.cls-3{fill:#f4daab;}</style></defs><path class="cls-1" d="M31.49,43.57h37L50,34.29ZM61,41.42a.49.49,0,0,1-.22.93H39.2a.49.49,0,0,1-.22-.93l10.8-5.49a.49.49,0,0,1,.44,0Z" transform="translate(-25 -33.25)"/><polygon class="cls-2" points="16.25 8.11 33.75 8.11 25 3.66 16.25 8.11"/><path d="M49.78,35.93,39,41.42a.49.49,0,0,0,.22.93H60.8a.49.49,0,0,0,.22-.93l-10.8-5.49A.49.49,0,0,0,49.78,35.93Zm-8.53,5.44L50,36.91l8.75,4.46Z" transform="translate(-25 -33.25)"/><polygon class="cls-1" points="42.87 28.24 41.7 28.24 37.92 28.24 35.77 28.24 32 28.24 29.85 28.24 26.07 28.24 23.93 28.24 20.15 28.24 18 28.24 14.23 28.24 12.08 28.24 8.3 28.24 7.13 28.24 7.13 29.01 42.87 29.01 42.87 28.24"/><polygon class="cls-1" points="11.43 12.07 14.88 12.07 17.35 12.07 20.8 12.07 23.27 12.07 26.73 12.07 29.2 12.07 32.65 12.07 35.12 12.07 38.58 12.07 41.05 12.07 42.87 12.07 42.87 11.3 7.13 11.3 7.13 12.07 8.95 12.07 11.43 12.07"/><polygon class="cls-1" points="44.64 29.99 43.36 29.99 6.64 29.99 5.36 29.99 5.36 30.76 44.64 30.76 44.64 29.99"/><polygon class="cls-1" points="45.13 31.74 4.87 31.74 3.43 31.74 3.43 32.51 46.57 32.51 46.57 31.74 45.13 31.74"/><polygon class="cls-3" points="11.56 27.26 10.96 13.05 9.42 13.05 8.81 27.26 11.56 27.26"/><polygon class="cls-3" points="16.88 13.05 15.35 13.05 14.74 27.26 17.49 27.26 16.88 13.05"/><polygon class="cls-3" points="22.8 13.05 21.27 13.05 20.66 27.26 23.41 27.26 22.8 13.05"/><polygon class="cls-3" points="28.73 13.05 27.2 13.05 26.59 27.26 29.34 27.26 28.73 13.05"/><polygon class="cls-3" points="34.65 13.05 33.12 13.05 32.51 27.26 35.26 27.26 34.65 13.05"/><polygon class="cls-3" points="39.05 13.05 38.44 27.26 41.19 27.26 40.58 13.05 39.05 13.05"/><path d="M74.51,65.77h-2V64.51a.49.49,0,0,0-.49-.49H70.62V62.76a.48.48,0,0,0-.49-.49H68.85V61a.49.49,0,0,0-.49-.5H67.17L66.56,46.3h1.8a.49.49,0,0,0,.49-.49V44.55h1.73a.49.49,0,0,0,.48-.38.48.48,0,0,0-.26-.55L50.22,33.31a.49.49,0,0,0-.44,0L29.2,43.62a.48.48,0,0,0-.26.55.49.49,0,0,0,.48.38h1.73v1.26a.49.49,0,0,0,.49.49h1.8l-.61,14.21H31.64a.49.49,0,0,0-.49.5v1.26H29.87a.48.48,0,0,0-.49.49V64H27.94a.49.49,0,0,0-.49.49v1.26h-2a.49.49,0,1,0,0,1h49a.49.49,0,0,0,0-1Zm-46.08,0V65H71.57v.77Zm39.93-22.2H31.49L50,34.29l18.51,9.28Zm-36.23,1H67.87v.77H32.13Zm29.11,16L60.63,46.3h2.43l-.61,14.21Zm-5.92,0L54.71,46.3h2.43l-.61,14.21Zm-5.92,0L48.79,46.3h2.42L50.6,60.51Zm-5.93,0L42.86,46.3h2.43l-.61,14.21ZM40.35,46.3h1.53l.61,14.21H39.74Zm5.92,0H47.8l.61,14.21H45.66Zm5.93,0h1.53l.61,14.21H51.59Zm5.92,0h1.53l.61,14.21H57.51Zm-21.18,0h2.43l-.61,14.21H37.55Zm26.5,14.21L64,46.3h1.54l.61,14.21ZM36,46.3l.6,14.21H33.81l.61-14.21ZM32.13,61.5H67.87v.77H32.13Zm-1.77,1.75H69.64V64H30.36Z" transform="translate(-25 -33.25)"/></svg>