<svg id="Ñëîé_1" data-name="Ñëîé 1" xmlns="http://www.w3.org/2000/svg" viewBox="0 0 903.61 2400"><defs><style>.cls-1{fill:#ffb891;}.cls-2{fill:#eb9d85;}.cls-3{fill:#a6392b;}.cls-4{fill:#ccbdba;}.cls-5{fill:#bdaeac;}.cls-6{fill:#ba746a;}.cls-7{fill:#b52424;}.cls-8{fill:#b3642f;}.cls-9{fill:#fcf5e7;}.cls-10{fill:#d97b7b;}.cls-11{fill:#9e592a;}</style></defs><path class="cls-1" d="M1305.51,1875.39l4.25,114.93s-6.44,32.18-4.83,36.48,7,21.52,7,21.52-27.35,128.11-27.35,156.54,7,366.32,6.44,371.14-88.5,91.72-88.5,91.72-11.8-3.76-17.7,0,0,19.31,0,19.31,189.87-7.51,193.62-16.63-24.13-54.71-29-76.7,1.07-27.89-.54-40.76-2.68-26.81-2.68-26.81,82.06-240.28,89.57-313.76-36.47-187.72-38.08-200.59,16.09-53.1,16.09-53.1Z" transform="translate(-1048.19 -300)"/><path class="cls-1" d="M1640.86,2002.48,1666.6,2034s-.71,22.88,9.3,38.61c.71,98.69-5.72,165.91,5.72,190.94s53.63,202.38,55.78,221,0,60.78,0,69.37,6.44,19.3,7.15,23.6-8.58,99.4-8.58,105.83,133.73,7.51,136.59,3.76-73.66-122.47-78-148.21,10-272.46,9.29-311.79-57.92-179.57-60.06-189.19-5-38.22-5-38.22Z" transform="translate(-1048.19 -300)"/><path class="cls-2" d="M1331.62,2055.9c-3.67-6.83-7.13-15.63-13.19-20.58-2.41-2-5.67,1.34-5.16,3.91,1.58,7.9,7,15.36,10.72,22.42,3.29,6.18,6,14.85,12,18.87,2.37,1.6,4.4-1.09,4.37-3.3C1340.2,2069.78,1335.08,2062.36,1331.62,2055.9Z" transform="translate(-1048.19 -300)"/><path class="cls-2" d="M1720.59,2091.19c-5.52-5.24-13.08-8.85-19-13.87a159.32,159.32,0,0,1-17.71-17.72c-3-3.54-7.9,1.87-5.31,5.1a171.91,171.91,0,0,0,17.49,18.9c5.94,5.51,12.92,12.72,20.44,15.85C1721.17,2101.39,1723.57,2094,1720.59,2091.19Z" transform="translate(-1048.19 -300)"/><path class="cls-2" d="M1750.26,2313.53c-5.15-35.88-10.42-71.73-15.24-107.66-.25-1.9-2.74-1-2.54.67,4.52,37.51,8.55,75.07,12.75,112.62,3.83,34.39,5.23,70.86,13.84,104.41.84,3.3,4.53.39,4.52-1.87C1763.36,2385.91,1755.35,2348.93,1750.26,2313.53Z" transform="translate(-1048.19 -300)"/><path class="cls-2" d="M1303.08,2320.16c.36-42.45,1.12-84.9.89-127.35,0-3.06-4.53-2.21-4.62.54-1.42,45-1.78,90-2.59,135.06-.76,42.27-3.82,85.26-1.34,127.48.22,3.79,5.32,2.6,5.6-.66C1304.77,2410.6,1302.71,2365,1303.08,2320.16Z" transform="translate(-1048.19 -300)"/><path class="cls-3" d="M1379.51,2664.29c-10.24,1.14-20.49,2.14-30.74,3.17,3.75-7.47,7.32-15,10.81-22.66,2.93-3.93,4.58-7,5.22-12a3.49,3.49,0,0,0-3.62-4c1-1.83,2-3.68,3-5.5,2.67-4.55-3.08-9.62-6-4.66a285.77,285.77,0,0,0-15.2,29.39,70,70,0,0,1,4.69-14c3.72-7.92,8.63-13.36,8.13-22.34-.21-3.67-4.67-3.87-6.43-1.25-12.2,18.15-23,38.33-28.58,59.7-10.93,1-21.86,2-32.8,3a72.68,72.68,0,0,0-25.85-64.48c-4.16-3.49-8.8,4.44-5,7.75a65.56,65.56,0,0,1,22.74,52.31c-1.93-3-3.35-7.26-4.58-9.33a126.91,126.91,0,0,0-10.31-14.53c-6.63-8.21-14-16.62-22.93-22.39-2.26-1.46-4.88,2-3.23,3.93a94.43,94.43,0,0,0,6.5,9.26,113.37,113.37,0,0,1,7.84,15.57,74.15,74.15,0,0,0-23-16.32c-3.59-1.56-6.17,4.61-3.34,6.77,13.25,10.19,24.76,19.83,33.76,33.68-26.35,1.79-53.28,3.08-78.78,8.85-4.23,1-4.82,8.43,0,8.85,32.12,2.78,65.82-1.81,97.91-4.23q49.11-3.72,98.06-9.18C1386.08,2678.75,1388.39,2663.3,1379.51,2664.29Zm-45.39-9.46a86.39,86.39,0,0,0-.65,14.2l-5.19.47C1330.18,2664.55,1332.1,2659.65,1334.12,2654.83Z" transform="translate(-1048.19 -300)"/><path class="cls-3" d="M1868,2680.15a409.17,409.17,0,0,1-74.42,4.62c-19.76-.64-41.75-7.05-61-2.88-2.24.49-3.36,4.24-1.34,5.64,17.25,12,44.29,11.41,64.67,12.21,24.8,1,49.35-.92,73.85-4.63C1878.09,2693.85,1877.41,2678.73,1868,2680.15Z" transform="translate(-1048.19 -300)"/><path class="cls-3" d="M1846.49,2628.9c-.14-.3-.4-.54-.56-.83l.09-.07c-.13-.14-.26-.24-.39-.38-3.42-6-9.13-10.6-16-13.85-11-7.4-22.74-10.7-39.25-11a105.19,105.19,0,0,0-15.19.74c14.38-8,27.75-11.28,44.66-6.91,4.48,1.16,8.47-4.86,5.5-8.58-11.87-14.83-28.16-9.15-43.3-2.27-19.45,8.85-38.39,19.51-48.21,39.28-2.57,5.17,2.77,10.54,6.76,5.22,7.52-10,18-15,29.38-17.18-13.37,5.94-25,15.68-34.62,26.81-2.43,2.84.44,8.16,3.52,4.9,13.08-13.85,28.53-25.22,47.77-28.34,9.64-1.57,27.45-.3,40,5.56a82.49,82.49,0,0,1,13.18,11.89C1843.05,2637.32,1848.43,2632.86,1846.49,2628.9Z" transform="translate(-1048.19 -300)"/><path class="cls-3" d="M1352.13,2498a120.66,120.66,0,0,0-65.52-7.17c-2.93.47-3.54,4.35-2.33,6.48a22.33,22.33,0,0,0,4.88,5.76c-.94,1.6-.91,3.87,1,4.26l8.94,1.78c7.32,3.17,16,5.09,24.25,6.23-11.84,4.49-23.83,8.34-36,12.49a4.1,4.1,0,0,0-1.61,6.78c10.6,9.83,19.07,20.53,30.76,29.21,11.43,8.49,21.86,16.3,29.2,28.94,1.82,3.13,5.09-1,4.47-3.38-7-26.72-39.7-35-56.22-55.5,17.4-3.47,34.12-10.13,50.17-17.57,2.56-1.19,3.24-5.27,1.69-7.45a46.42,46.42,0,0,0,6.18-2.77C1355,2504.48,1355.53,2499.36,1352.13,2498Zm-14.83,4.64c-9.92,2-20.78.89-31.27-.15a42,42,0,0,1-10.78-4.54A134.1,134.1,0,0,1,1337.3,2502.64Z" transform="translate(-1048.19 -300)"/><path class="cls-3" d="M1795.63,2493.3c-17.18,4.53-34.65,4.8-52.13,3.26.28-.26.47-.47.8-.74,14.22-12.1,22.07-17.87,40.73-20a4.57,4.57,0,0,0,1.08-.36c2.44-.33,4.87-.73,7.15-1,5.64-.61,7.21-8.11,3.87-10.73,4.79-1.58,5.63-10.94-.46-11.2-24.25-1-46.38,3.66-67.86,15-3.25,1.72-3.68,8.86,1,8.78,7.25-.12,14.51-.15,21.76-.2-8.18,5.47-11.35,14.88-19.59,20-3.1,1.93-3.51,8,1,8.35,17,1.44,33.07.31,49.57-1.44A142.38,142.38,0,0,0,1739,2567.2c-1.22,3.6,3.49,5.3,4.83,1.73,10.6-28.37,28.65-50.9,53.65-67.86C1800.53,2499,1800.56,2492,1795.63,2493.3Zm-12.79-29.65a27.62,27.62,0,0,0-7.27,1.76,2.87,2.87,0,0,0-.62.43c-5.07.13-10.14.24-15.21.39A117.68,117.68,0,0,1,1782.84,2463.65Z" transform="translate(-1048.19 -300)"/><path class="cls-1" d="M1588.8,722.08c-.81-.8-101.91-39.68-106.47-45.05s-7.68-39.15-7.68-39.15,18.95-6.71,23.24-12.61,32.09-189-15.87-253.95c-37.77-27.89-207.79,8.19-226,71.94s70.16,173.2,70.16,173.2,35.32,81.13,16.72,117.24c-79.37,76.88-95.46,117.64-95.46,117.64s-19.31,26.46-26.11,79,8.94,131.23,8.94,131.23-27.89,132.29-34.32,196.65c-64.36,123.72-98,282.47-118,304.64-16.44,22.89-36.47,125.86-27.53,141.6,13.95-3.22,30.75-31.11,30.75-31.11s20.38,25.74,24.67,28.6,12.16-34.68,12.16-34.68,27.53,24.67,30.75,24-3.22-34-3.22-34,30,15.73,29.32,9.29-13.59-31.82-13.23-32.89-3.57-45.5-13.23-62.26C1194.5,1486,1271,1409.13,1298.9,1349.06S1588.8,722.08,1588.8,722.08Z" transform="translate(-1048.19 -300)"/><path class="cls-4" d="M1834.53,1949.76c-12.87-71.51-27.89-168-55.78-279.61s-115.14-373.29-115.14-373.29l110.13-126.58s47.29-22.08,36-46.75c-3.22-7.24-26.82-12.6-25.75-14.75s22.8-8.85,17.16-31.1-26.54-30.58-26.54-30.58-6.17-55-9.39-80.71,4.29-16.09,3-33S1756.4,912,1756.4,912s11.8-16.36,8.58-24.94-9.38-9.39-9.38-9.39-4.56-96-92-117.46c-35.66,85.55-360.38,503.09-360.38,503.09s-27.92,83.67-30.43,93,14.31,17.17,13.59,26.46-20.38,42.91-10.73,57.57,43.27-6.44,43.27-6.44-64.73,116.18-50.06,250.59,7.51,375.86-11.8,466-31.11,118-31.11,118,81,27.88,117.46,53.63,88.67,30.61,91.33,30.26,479.16-57.79,479.16-57.79S1847.4,2021.27,1834.53,1949.76Z" transform="translate(-1048.19 -300)"/><path class="cls-5" d="M1655,1319s115.32-13.41,112.1-43.45-53.1-27.89-37-53.09,26.28-62.75,26.28-62.75-193.08,75.08-210.24,136.23S1655,1319,1655,1319Z" transform="translate(-1048.19 -300)"/><path class="cls-1" d="M1700.62,1181.73s5.9,41.83,5.9,44,4.29,76.7,14,103.52,101.9,195.23,99.75,218.82-26.28,41.3-25.2,53.64,13.41,26.81,16.09,34.32,5.36,45.59,19.31,48.27,52.56-40.22,59-45.58-17.7-85.28-13.94-101.37-54.17-291.23-56.32-312.69-48.8-87.42-48.8-87.42Z" transform="translate(-1048.19 -300)"/><path class="cls-6" d="M1304.07,1060.53a187.43,187.43,0,0,1-12.3-61.08c-.78-21.3,2-43.42-2.11-64.39-1-5.33-6.82-3.45-7.74.91a137.12,137.12,0,0,0-2.55,24.9,25.06,25.06,0,0,1-6.46-3.67c-2.4-1.77-4.69-4.48-7.9-4.25a2.18,2.18,0,0,0-2,2c-.11,7.6,9,13.45,16.35,14.28.08,8.71.48,17.42.71,25.83.51,18.95,1.81,38.08,8.28,56.06s16.4,34,21.69,52.58c6.73,23.63,9.68,47.64,12.36,72,.28,2.57,3.63,1.35,3.4-.9C1321.81,1136.05,1317.93,1097.22,1304.07,1060.53Z" transform="translate(-1048.19 -300)"/><path class="cls-7" d="M1391.93,2343.67s26,27.29,66.45,24.79,64-26.42,86.17-12.31,49.7,42.7,106.91,41.63,85.45-43.62,138.37-34.68,111.56,29.68,162,3.22c-21.81-25.75-37.9-71.87-37.9-71.87S1619,2202.31,1391.93,2343.67Z" transform="translate(-1048.19 -300)"/><path class="cls-8" d="M1313.56,484.84s2.15,38.26,10.37,36.83,1.43-39.33,2.15-47.2,12.51-8.58,11.44-20.38-15.73-28.24-13.59-32.89,21.1-5,21.1-16.45a33.07,33.07,0,0,0-5.36-18.59s22,13.85,37.27,4.74,24.67-15.83,33.52-10.46,21.19,7.24,26,0,10.19-1.08,26.81-.27,13.41-6.44,17.7-6.44,26.28,13.41,30.84-15-16.89-14-24.13-22.8-7-26.82-33.53-24.94-14.21,5.9-29,2.41-22.26-20.91-45.85-9.65-27.63,15-47.74,14.21-28.42,9.66-40,19.58-37,4-45.05,24.67-.8,8.05-13.14,28.16-10.19,36.74-1.88,47.2-6.7,37.81-.26,50.95,13.4,16.36,12.6,31.11,10.46,29.5,21.45,39.69,4,15.82,13.14,27.35,22.53,3.75,24.68,13.94,16.62,24.41,22,20.65-12.34-52.56-14-75.62c-5.63-1.07-42.37,2.14-43.71-41.57S1306.77,458.92,1313.56,484.84Z" transform="translate(-1048.19 -300)"/><path class="cls-8" d="M1410.1,433.6c-6.26-3.31-16.11-.58-22.39,1.7a36.55,36.55,0,0,0-9.37,4.79c-2.89,2.14-4.87,5.33-7.69,7.41-2.19,1.61-3.21,6.92.8,7,6.58.06,11.61-3.41,17.94-4.88,6.75-1.56,14.71-.58,20.65-4.46C1414.26,442.37,1414.77,436.06,1410.1,433.6Z" transform="translate(-1048.19 -300)"/><path class="cls-8" d="M1504.62,426.78c-4.57-4.49-11.52-4.44-17.43-3.18-6.3,1.36-7.46,13.35,0,13.52,4.52.11,9,.59,13.52.55C1506.28,437.63,1508.23,430.34,1504.62,426.78Z" transform="translate(-1048.19 -300)"/><path class="cls-6" d="M1471.64,595.33c-10.32,6.42-19.33,10-31.7,10.79-9.15.57-21.76,1.91-29.23-4.13-2.44-2-5.52,2.35-3.68,4.47,7.63,8.81,21.58,7,32.15,6.36,12.58-.75,26-3.47,34.73-13.22C1475.47,597.86,1474.47,593.58,1471.64,595.33Z" transform="translate(-1048.19 -300)"/><path class="cls-6" d="M1484.73,541.3c-3.06-12.62-9.31-24.23-12.08-37.15-2.82-13.11-2.91-26.18-4.05-39.45-.22-2.52-3.35-1.61-3.64.43-2.1,14.54-.61,29.55,2.07,43.94,2.76,14.81,15.6,35.29.75,46.3-2.89,2.14-3,8.22,1.78,7.41C1482,560.65,1487.73,553.65,1484.73,541.3Z" transform="translate(-1048.19 -300)"/><path d="M1404.21,493.06c-1.61-5.3-8.07-1-7.7,3.2.31,3.55-.3,8,1.31,11.23a3.39,3.39,0,0,0,6.13.26C1406.65,503.35,1405.65,497.78,1404.21,493.06Z" transform="translate(-1048.19 -300)"/><path d="M1505,481.26c-1.61-5.3-8.08-1-7.71,3.2.32,3.55-.29,8,1.31,11.23a3.39,3.39,0,0,0,6.13.26C1507.46,491.55,1506.45,486,1505,481.26Z" transform="translate(-1048.19 -300)"/><path class="cls-9" d="M1304.27,1265.66s-13.41,53.37-22.53,78.58,13.41,11.79,11.27,34.32-18.78,41.3-11.27,54.71,44.52-7,62.75-18.77l-18.23,11.8s-61.76,117.27-46.7,324.66,5,437.65-43.59,516.31c104.41,20,128.73,75.81,180.21,84.39s75.81-42.91,118.71-32.9,28.61,32.9,87.25,32.9,51.49-61.5,138.73-51.49,153-5.72,153-5.72-77.24-214.54-97.26-401.9S1655,1319,1655,1319s-69.72,8.58-70.79-11.8,208.1-153.39,216.68-169.48-24.67-23.6-23.6-26.82,22.52-15,13.94-32.18-25.74-29-25.74-29-12.16-95.11-10-106.2,5-18.23-7.51-28.6c16.09-21.46,1.07-33.61,1.07-33.61s2.86-71.52-85.46-121.22C1551,806.29,1323.58,1147.93,1304.27,1265.66Z" transform="translate(-1048.19 -300)"/><path class="cls-7" d="M1663.61,760.16s-281,303-359.34,505.5c-19.31-123.62,237.06-528,284.26-547.33C1628.22,722.62,1663.61,760.16,1663.61,760.16Z" transform="translate(-1048.19 -300)"/><path class="cls-7" d="M1664.73,1326.54c-20.86,4.36-41.46,9.66-62.18,14.55a106.22,106.22,0,0,0-8.7-8.16c-3.23-2.68-7.28,1.09-7.64,4.39-.09.86,0,1.69-.07,2.54a2.89,2.89,0,0,0-2.54.62,13.45,13.45,0,0,0-3.53,5.59c-4.62,1-9.22,2-13.87,2.86-33.26,6.13-66.6,11.81-99.78,18.43-52.13,10.39-108.56,20.84-146.68,60.88-1.56,1.64.17,4.73,2.09,2.91,43-41,105.94-46.87,162-54.64,32-4.44,65.47-8,98.38-13.54a26.84,26.84,0,0,0,1.62,2.42c-17.08,56.33-30,123.73-18.89,181.8.69,3.6,5.47,2.83,5.66-.67,1.57-30-.8-59.87,2.13-89.93a561.92,561.92,0,0,1,15.75-86.45,16.89,16.89,0,0,0,4.26,2.49c7,2.67,13.33-3.44,11.48-10.62a10.45,10.45,0,0,0-.43-1.1c.46.69.92,1.36,1.38,2.06a4.31,4.31,0,0,0,1.12,1.1c8.63,32.93,18.67,65.13,24.22,99,5.79,35.33,8.29,71,9.31,106.76.07,2.54,3.71,1.8,3.81-.45,3-67.24-4.34-144.18-30.45-207.81a5.43,5.43,0,0,0,.59-4.81,370.37,370.37,0,0,0,52.7-15.58C1673.75,1338.34,1674.24,1324.55,1664.73,1326.54Z" transform="translate(-1048.19 -300)"/><path class="cls-4" d="M1620.46,867.25c-103.65,142.86-132.07,334.75-273.31,451.1-2.26,1.87.1,5.77,2.65,3.69,141-115,175.3-306.74,273.86-452.32C1625.25,867.37,1622.25,864.79,1620.46,867.25Z" transform="translate(-1048.19 -300)"/><path class="cls-4" d="M1683.56,998.33c-19.07,15.58-70.07,82.92-107.83,152.31,12.78-38.31,24.24-77.15,34.69-116,13.46-50.06,32.34-104.08,36-156,.39-5.59-6.38-6.69-8.3-1.57-9.71,25.84-13.91,54-20.3,80.76q-9.21,38.58-19,77c-12.24,47.72-24.93,95.33-37.09,143.06-34.2,70.51-48.44,136.37,5.46,144.71,1.33.21,1.69-2.19.28-2.44-71.65-12.39,11.71-146.57,29.42-177.48,13.76-24,28.57-47.46,44.48-70.12,15.78-22.48,35.61-43.11,49.41-66.78C1693.77,1000.57,1689,993.85,1683.56,998.33Z" transform="translate(-1048.19 -300)"/><path class="cls-4" d="M1698.58,1126.35c-42.25,34.59-79.53,76.16-114.06,118.29a2.32,2.32,0,1,0,3.65,2.83c34.59-42.59,72.91-80.76,111.53-119.57C1700.56,1127,1699.67,1125.46,1698.58,1126.35Z" transform="translate(-1048.19 -300)"/><path class="cls-4" d="M1720.85,915.21c-17.52,16.43-31.37,37.92-44.8,57.68-2,2.91,1.79,6.16,4,3.07,14-19.64,30.45-37.61,43.92-57.52C1725.41,916.29,1723.06,913.14,1720.85,915.21Z" transform="translate(-1048.19 -300)"/><path class="cls-4" d="M1688.28,923.45a131.61,131.61,0,0,1-13,19.23c-1.63,1.93.46,5.48,2.34,3.25,5.47-6.48,10-13.24,13-21.19C1691.2,923.19,1689.19,921.88,1688.28,923.45Z" transform="translate(-1048.19 -300)"/><path class="cls-4" d="M1517,1175.33c-55,70.15-80.17,165.15-165.63,207.11-2.07,1-1,4.66,1.36,3.61,85.83-37.36,120.68-134.41,167.24-208.43C1521.39,1175.38,1518.75,1173.11,1517,1175.33Z" transform="translate(-1048.19 -300)"/><path class="cls-4" d="M1516.47,990.22c-28.3,36.27-54.22,74.41-76.19,114.85-19.54,36-39.88,74.73-48.85,114.86a2.25,2.25,0,0,0,4.19,1.51c19.34-38.9,33.41-80,54-118.46a805.69,805.69,0,0,1,70.61-109.86A2.38,2.38,0,1,0,1516.47,990.22Z" transform="translate(-1048.19 -300)"/><path class="cls-4" d="M1445.2,1930.61c-31.93-111.32-55.69-223.09-64.82-338.75-.18-2.27-3.12-1.17-3,.79,6.65,111.31,28.15,218.41,56.53,326,29.8,112.92,31.46,226.32,41.56,341.77.93,10.65,13.8,5.06,13.74-3.63C1488.48,2146.88,1475.51,2036.28,1445.2,1930.61Z" transform="translate(-1048.19 -300)"/><path class="cls-4" d="M1695,2227.07c-19.73-48-42.07-94.52-59.77-143.46-18.46-51-36.5-102.27-53-154-32.84-102.87-48.9-210.15-82.79-312.62-.62-1.86-3-.17-2.49,1.43,33.63,104.28,48.85,213.39,81.41,318.06,16.12,51.81,34.29,103,52.22,154.17,16.52,47.2,32.16,97.79,59.94,139.75C1692.42,2233.27,1696.06,2229.59,1695,2227.07Z" transform="translate(-1048.19 -300)"/><path class="cls-4" d="M1821,2239.11c-13.78-28.68-32.09-55.31-47.41-83.24-18.07-33-36-66.1-52.39-99.94-30.29-62.42-56-126.82-74.5-193.76-1.17-4.24-6.6-.41-5.6,3.23,18.67,68.29,45.16,133.87,75.08,197.94q21.67,46.42,45.34,91.89c16,30.55,30,63.11,48.37,92.26C1814.27,2254.43,1824,2245.35,1821,2239.11Z" transform="translate(-1048.19 -300)"/><path class="cls-4" d="M1370.5,1963.25c-.21-4.71-6.4-2.43-6.23,1.64,1.87,45.33,1.72,90.69-.84,136-2.4,42.77-10.12,85.33-12,128-.13,2.91,3.8,3.92,4.56.87,10.7-42.6,12.29-89.05,14.44-132.8C1372.65,2052.4,1372.53,2007.8,1370.5,1963.25Z" transform="translate(-1048.19 -300)"/><path class="cls-4" d="M1767.32,1949.11c-14.86-38.38-34.36-75.37-51.32-112.91-16.43-36.37-31.59-73.29-46.2-110.43-29.73-75.57-59.37-153-69.57-234.08-.35-2.77-4-1.46-3.69,1,9.7,80.16,38.8,157,66.3,232.41,28,76.89,55.64,159,96.39,230.14C1762.28,1960.54,1769.07,1953.62,1767.32,1949.11Z" transform="translate(-1048.19 -300)"/><path class="cls-6" d="M1313.81,527.34c-3-7.4-8.94-13.85-13.19-20.63-4.12-6.57-7.83-13.57-13.17-19.25-2.71-2.88-6.55,1.45-4.52,4.35,3.57,5.1,6.79,10.37,10,15.64-2,1.11-4.11,2.21-6.07,3.52-1.52,1-2.3,5.36.59,5a24.61,24.61,0,0,0,9-2.86c3.82,6.26,7.79,13.52,13.55,17.85C1312.24,532.64,1314.65,529.45,1313.81,527.34Z" transform="translate(-1048.19 -300)"/><path class="cls-6" d="M1473.8,636.08c-25.46,6.72-55.32,16.31-81.8,16.28-37.11-.05-42.48-37.6-52.67-65.23-1.63-4.41-6.72-.84-6.48,2.69,1.75,25.55,13,60.67,39.33,71.27,13.39,5.38,28.27.51,41.74-2.2q8.7-1.74,17.27-3.75c.4,5.37,0,10.4-2.19,15.56-1.56,3.63-3.3,6.68-4.22,10.62-1.63,7-2,15.14,1,21.75a3.49,3.49,0,0,0,6.57-.72c1.13-4.14,1.2-7.9,1.38-12.16.26-6.18,2.07-10.65,4.1-16.33,2.54-7.13,1.41-13.46-.65-20.2a267.16,267.16,0,0,0,37.34-11.87C1477.26,640.65,1477.48,635.11,1473.8,636.08Z" transform="translate(-1048.19 -300)"/><path class="cls-10" d="M1313.73,1025.51c-1.1-2-2.58-2.8-4.56-3.8-3.77-1.92-8.12,2.06-9.3,5.35-1.44,4,0,8.16,3.78,10,2,1,3.6.85,5.75.5C1314.9,1036.7,1315.94,1029.5,1313.73,1025.51Z" transform="translate(-1048.19 -300)"/><path class="cls-2" d="M1483.56,723.66c-4.52,2.92-5.74,5.56-9.84,8.74a25.69,25.69,0,0,1-15.37,10.06,16.75,16.75,0,0,0-6.85,1.43c-3,2.11-10.16,15.11-11.88,15.72-.23.08-13.28-7.31-17.17-7.18-6,.2-11.83,3.94-17.83,4.26-11.31.59-22.65-4.31-33-8.35-1.67-.65-2.75,2.36-1.09,3,8.47,3.4,17.18,7.42,26.07,9.56,7.53,1.82,14.77,1.45,22,4.32,8,3.14,15.55,13.34,25,8.77,4.18-2,4.9-6.14,7.56-9.26,5.1-6,9.51-7.37,15.68-11.13,10.7-6.51,18.87-13.86,21.53-26.31C1489,724.64,1486,722.08,1483.56,723.66Z" transform="translate(-1048.19 -300)"/><path class="cls-2" d="M1436.78,805.23c-.51-6.23-8.31-3.09-8.14,2.15.87,26.46-1.34,56.57,5.65,82.21,1.11,4.07,6,1.22,6.42-1.68C1444.49,861.41,1439,831.77,1436.78,805.23Z" transform="translate(-1048.19 -300)"/><path class="cls-2" d="M1467.23,660.78c-.2-2.48-3-2.41-4.19-.82-6.1,7.84-7.63,19.18-10.48,28.6-3.31,11-6.48,22-9.66,33-1.49,5.19,5.26,7.74,6.93,2.48,3.67-11.64,7.32-23.29,10.85-35C1463.44,679.9,1468,670.41,1467.23,660.78Z" transform="translate(-1048.19 -300)"/><path class="cls-2" d="M1416.56,721c-2.89-7.79-8-14.76-12.43-21.78-4.8-7.66-9.54-15.67-15.22-22.71-2.64-3.26-7.43,1-5.78,4.36,3.91,8,8.91,15.55,13.71,23,4.68,7.3,9,15.36,15.17,21.49C1414.48,727.79,1417.4,723.23,1416.56,721Z" transform="translate(-1048.19 -300)"/><path class="cls-2" d="M1279.14,1264.72c-7.27,2.75-13.22,8.17-19.93,12.06-8.64,5-17.49,8.19-27.55,8.31-5.11.06-6.66,9-1.07,9.36,18.37,1.24,40.47-9.2,51.75-23.76C1284,1268.52,1282.48,1263.46,1279.14,1264.72Z" transform="translate(-1048.19 -300)"/><path class="cls-2" d="M1219.25,1276q-2.41-6.12-4.85-12.24c-1.27-3.19-2.28-7-6.29-7a3.19,3.19,0,0,0-2.71,1.56c-2.15,3.67-.9,6.6.66,10.28,1.7,4,3.44,8,5.16,12.07C1213.72,1286.43,1221.27,1281.05,1219.25,1276Z" transform="translate(-1048.19 -300)"/><path class="cls-2" d="M1237.38,1307.07c-3.13.66-5.29,3.22-7.86,5a46.44,46.44,0,0,1-9.42,4.93c-4.28,1.64-4,10.15,1,8.35,6.68-2.41,17-6.59,19.55-13.84C1241.41,1309.24,1240,1306.51,1237.38,1307.07Z" transform="translate(-1048.19 -300)"/><path class="cls-6" d="M1124.37,1577.32a2.25,2.25,0,0,0-4.08-.17c-3.45,5.64-3,12.86-5.28,19-3,8.18-9.53,14.72-18.77,13.62-4.06-.48-5,6.55-.84,7.32h.08c2.51,15.34-1.74,29.73-7.12,43.91-7.61-12.86-10.85-30.67-12.86-44.52-.54-3.74-5.66-2-5,1.33,1.6,8.32,3.61,16.56,6,24.7,2.67,9.2,7.31,17.88,9.6,27.1.82,3.3,4.81,1.54,5.71-.62,7-16.76,13.25-33.76,11.21-52,6.43-1.29,12.1-5.58,15.87-11.17C1123.63,1598.7,1127.76,1585.64,1124.37,1577.32Z" transform="translate(-1048.19 -300)"/><path class="cls-2" d="M1142.94,1613.08c-2.59,1.5-8.19-1.61-10.75-2.57-3.66-1.37-7.5-3.92-11.49-3.57a2.61,2.61,0,0,0-2.21,3.5c1.52,3.72,5.35,6.3,9.37,8.18a150,150,0,0,0-19.3,5.21c-3.53,1.31-4.94,8.1,0,8.39,10.83.63,23-2.94,33.51-5.4,2.81-.66,4.14-3.37,4.24-6a7,7,0,0,0,1.64-2.58C1149.08,1615.08,1146.35,1611.12,1142.94,1613.08Z" transform="translate(-1048.19 -300)"/><path class="cls-2" d="M1751.22,1204.34c-5.78,5.44-8.43,14.51-10.85,21.91a147.8,147.8,0,0,0-5.81,26.14c-.81,6.12,7.28,5.83,8.14.25a132.58,132.58,0,0,1,6.29-25c2.47-6.79,6.62-13.17,7.79-20.29A3.31,3.31,0,0,0,1751.22,1204.34Z" transform="translate(-1048.19 -300)"/><path class="cls-11" d="M1366.79,343.72c-7.6-20.42-27.83-8.57-39.71.47-5.61,4.27-10.75,4.37-16.1,8.4-5.64,4.24-8.73,15.09-10.72,23.12-23.34-8-29.06,8.2-41.43,29.1-2,3.38,2.42,7.11,4.43,3.43,7-12.89,16.84-42.71,37.09-22.14,1.66,1.69,5.07.36,6-1.5,2.72-5.51,6.15-19.13,11.15-21.51-1.94.93,4.15,1.46,5.1,1,13-7.15,20.3-21.49,38.15-12.88C1364.85,353.14,1368,347,1366.79,343.72Z" transform="translate(-1048.19 -300)"/><path class="cls-11" d="M1473,337.09c-1.91-7.87-7.87-9.66-15.51-9.31a34.85,34.85,0,0,0-11.63,2.69,29.66,29.66,0,0,0-4.43,2.15c-2.41,2.73-3.27,3.05-2.56.95-1.62-.44-4.28-4.1-6.2-4.92a17.91,17.91,0,0,0-7.64-1c-8.68.54-14.85,6.79-21.23,12-.75.6-.1,2.26.85,1.6,8.06-5.67,18.43-9.78,25.61-1.27,2.26,2.68,3,5.88,7,6.61,2.4.44,3.25-.55,5.4-1.23,7.88-2.53,15.18-8.2,22.87-1.07C1469.94,348.42,1473.83,340.71,1473,337.09Z" transform="translate(-1048.19 -300)"/><path class="cls-11" d="M1297.91,449.43c-.69-4.14-3.83-4.17-6.42-6.73-2.12-2.09-2.88-4.23-5.58-5.8a22.37,22.37,0,0,0-9.05-2.62q-1.3-.09-2.61-.24l.93-.41c.06-1.43,2.32-3.59,3-5,1-2,1.73-4.24,1-6.43-1.72-5-7.57-3.68-11.22-2.13-1.59.68-1,3.33.75,3.12q5-1.68,3.63,4.78c-.8.95-1.64,1.86-2.5,2.74a12.63,12.63,0,0,0-2.63,4,5.94,5.94,0,0,0,2.91,7.34c1.66.91,3.69.81,5.42,1.62,2.63,1.23,3.7,3,5,5.37,2.27,4,5.09,6.19,9.21,8.24,2,1,4.27-.27,5.81-1.48A6.46,6.46,0,0,0,1297.91,449.43Z" transform="translate(-1048.19 -300)"/><path class="cls-11" d="M1284.37,556.25c-7.55-7.37-8.45-11.52-11.27-21.27-.5-1.74-.39-4-1.56-5.39-2.7-3.24-6.83-4.47-10.91-5.58.39-6.47,1.09-13.18,0-19.4-1.78-10-12-17.56-7.65-29.44a1.78,1.78,0,1,0-3.33-1.19c-2.6,7.89-4.57,14.56-1.43,22.51,1.38,3.49,4.23,6.36,5,10.08,1.11,5.71-2.13,16-2.94,21.93a5.34,5.34,0,0,0,3.1,5.72c7.61,3,6.67,1.69,9.29,8.53,1.06,2.75,1.48,5.72,2.65,8.47a35.1,35.1,0,0,0,12.52,15.24C1283.79,570.72,1289,560.74,1284.37,556.25Z" transform="translate(-1048.19 -300)"/><path class="cls-11" d="M1243.35,405.61c-2.85,7.35-7.65,23.27.41,29a2.72,2.72,0,0,0,3.85-1c2-3.6,2.1-7.5,2.34-11.52a42.46,42.46,0,0,1,2.9-13.11C1255.56,402,1246.06,398.63,1243.35,405.61Z" transform="translate(-1048.19 -300)"/></svg>