<svg id="Ñëîé_1" data-name="Ñëîé 1" xmlns="http://www.w3.org/2000/svg" viewBox="0 0 786.88 2400"><defs><style>.cls-1{fill:#ffb891;}.cls-2{fill:#ba746a;}.cls-3{fill:#453e3e;}.cls-4{fill:#c27b3a;}.cls-5{fill:#a35930;}.cls-6{fill:#383838;}.cls-7{fill:#824726;}.cls-8{fill:#a6392b;}</style></defs><path class="cls-1" d="M1700.59,1095.47c1.91,7.14,7.64,106.42,10.82,124.87s54.09,225.29,56,266,.55,157.58-16.27,166-64.55-14.52-64.55-14.52-34.25-301.65-35.9-397.75S1700.59,1095.47,1700.59,1095.47Z" transform="translate(-1106.56 -300)"/><path class="cls-1" d="M1173,1072s4.46,27.1-4.45,50.11-9.55,63.06-9.55,65-30.86,117.25-34.21,148.43-7.79,211.58-7.79,212.39-1.27,79.72,0,91.81,82.09,54.73,86.55,50.91,21.64-43.28,25.45-47.1,13.37-5.72,17.19-27.36-47.73-88.46-46.46-99.91,60.83-230.38,59.69-248.83,0-110.1,0-110.1Z" transform="translate(-1106.56 -300)"/><path class="cls-1" d="M1258,1806.46c0,2.87-4.77,120.28-4.77,120.28s-12.41,40.56-8.59,69.44c-9.55,65.16-48.69,131.12-54.42,181.19s-22.91,351.4-30.54,363.49-50.6,138.1-50.6,143.82,120.28,5.73,123.15,0-13.37-143.82-13.37-143.82,106-276.2,120.28-313.42,11.45-215.2,13.36-221.68,48.69-116,54.42-137.14S1258,1806.46,1258,1806.46Z" transform="translate(-1106.56 -300)"/><path class="cls-1" d="M1590.18,1862.78c4.77,9.55,23.86,104,20,123.14s4.78,60.14,4.78,60.14-15.28,175.65-6.69,212.88,92.6,292.1,92.6,302.6-16.23,115.51-13.36,120.28,198.55,18.14,199.5,7.16-120.27-114.07-126-125.53-6.68-311.2-4.77-333.15-28.64-181.37-25.78-188.05,13.37-64,8.12-70.64-2.39-83.78-11-103S1590.18,1862.78,1590.18,1862.78Z" transform="translate(-1106.56 -300)"/><path class="cls-1" d="M1384.57,612.71s5.86,44.9,2.76,52.3c-30.31,15.27-106.76,92.36-106.76,92.36s-5.09,23.54,59.5,19.41,265.38-44.87,290.2-42.64c-68.09-39.78-96.41-58.87-99.91-67.78s-8.14-115.51-9-122.51S1384.57,612.71,1384.57,612.71Z" transform="translate(-1106.56 -300)"/><path class="cls-2" d="M1517.48,541.75c-6.22,7.16-10.27,15.77-16.71,22.72-9.59,10.35-22.8,15.29-35.44,20.9-26,11.55-52.08,16.69-78.8,25.33-2.13.69-3.82,5.42-.71,6,9.89,1.88,20,1.24,30.16-.84a24.46,24.46,0,0,0,7.9,12.55c5.94,5,10.35,6.12,10.86,15.48.3,5.48.25,11.51,3.79,15.89a2.6,2.6,0,0,0,4.31-.44c4.5-7.42,5.42-24.67.77-32.3-2.76-4.51-7.92-5.36-11.88-8.33a17.19,17.19,0,0,1-4.55-5.71c15.88-4.8,31.39-12.32,45.3-18.64,23.63-10.75,42.8-23.68,48.88-50.52C1521.84,541.71,1519,540,1517.48,541.75Z" transform="translate(-1106.56 -300)"/><path class="cls-1" d="M1370.94,325.58c-1.87.73-43.15,33.48-40.19,99.94.27,50.27-4.68,162.25,32.23,182.3S1528.07,584,1533.22,518.4c36.27-6.68,43.91-70,27.68-76.68C1560.9,416.26,1539.27,259.07,1370.94,325.58Z" transform="translate(-1106.56 -300)"/><path class="cls-3" d="M1537,456s-9.87,25.45-13,16.54,2.55-51.86,3.18-53.45-18.45,7.95-17.18-4.46,19.09-25.46,18.14-25.46-20.68-9.54-20.05-12.41,11.46-8.9,11.46-8.9-23.87,1.59-22.59-5.1,14.63-14.95,14.63-14.95-39.45,3.18-42.32-3.5,5.09-13.05,5.09-13.05-56.32,9.87-55,6.05,5.72-6.05,5.72-6.05-22.91,5.09-23.23,1.28,5.41-6.69,1.91-6.05-34,19.09-35.32,15.27-1.91-6.36-1.91-6.36-20,14.32-21.63,11.77,18.77-36.91,52.18-40.09,146-22,150.83,18.46c30.86,41.36,13,116.14,13,116.14S1545.31,433.13,1537,456Z" transform="translate(-1106.56 -300)"/><path class="cls-3" d="M1349.8,417.79c-6.59-1.9-14.4,0-20.56,2.6-6.43,2.67-4.6,15.45,3.23,13.41a50.47,50.47,0,0,1,7.37-1.61c2.79-.28,5.53-.08,8.31-.51C1354.07,430.77,1356.1,419.62,1349.8,417.79Z" transform="translate(-1106.56 -300)"/><path class="cls-3" d="M1444.71,418.43c-5.28-4-13.37-3.05-19.72-2.71-6.18.33-13.63,0-16.9,6.13-1,1.9-1.46,4.37-.07,6.24,3.79,5.07,9.7,2.79,15.27,2.51,5.92-.28,13.21,1.58,18.69-.69C1446.17,428.17,1449.1,421.77,1444.71,418.43Z" transform="translate(-1106.56 -300)"/><path class="cls-2" d="M1373.48,525.71c-2-6-6.41-10.55-8.2-16.5-2.39-7.95-.25-15.82.5-23.72a131.59,131.59,0,0,0-1.48-34.26c-.66-4-5.91-2.13-5.4,1.43,2.69,18.66,1,35.91-1.92,54.32-1.61,10.11.56,21.91,11.8,24.51C1372.1,532.26,1374.49,528.74,1373.48,525.71Z" transform="translate(-1106.56 -300)"/><path d="M1428.7,471.24c-.32-3.23-.08-6.75-2-9.52-2.48-3.67-6.49-1.77-8.37,1.3-2.72,4.42-3.27,17.53,2.74,19.71a4.9,4.9,0,0,0,5.57-1.66C1429.31,478.15,1429.06,474.85,1428.7,471.24Z" transform="translate(-1106.56 -300)"/><path d="M1343,478.45c-.33-3.22-.09-6.75-2-9.52-2.48-3.67-6.48-1.77-8.37,1.3-2.72,4.42-3.26,17.54,2.75,19.71a4.9,4.9,0,0,0,5.57-1.66C1343.63,485.36,1343.39,482.06,1343,478.45Z" transform="translate(-1106.56 -300)"/><path class="cls-2" d="M1417.86,565.31c-5.22-1.61-10.69-.89-16,0-7.35,1.25-14.6,6-22,6.29-2,.09-2.59,3.39-.42,3.64,6.41.75,11.65-1.27,17.88-2.5,6.6-1.31,13.35-.78,19.89-2.13C1419.46,570.18,1420.31,566.07,1417.86,565.31Z" transform="translate(-1106.56 -300)"/><path class="cls-2" d="M1555.78,453.13c-5.23,7.86-8.93,16.79-13.22,25.19-4,7.73-8.61,15.26-11.72,23.38-1.35,3.53,2.65,5.46,4.91,2.7a120.72,120.72,0,0,0,12.31-18.88c4.19-.28,8.84-.7,11.27-3.92a3,3,0,0,0-.41-3.89c-1.51-1.38-4-1.44-6.48-1.06a121.39,121.39,0,0,0,7.54-21.22C1560.64,452.66,1557.68,450.27,1555.78,453.13Z" transform="translate(-1106.56 -300)"/><path class="cls-4" d="M1280.57,757.37s-14.64-7-35,18.14c-19.89,24.54-76.37,47.72-78.28,100.7s-9.06,80.67,4.3,104-21.48,69.21-46.78,90.21c25.3,22,152.26,134.12,149.88,150.83-2.87,15.27-5.26,57.75-19.57,88.3s23.7,51.07,25.45,61.57-5.88,41.52,4.14,43,14.79-2.39,14.79-2.39-60.61,382.31-87.34,426.22c112.64,10.5,144.14,54.41,211,96.42s133.65-54.33,201.42-25.26,145.1-7.35,148.92-16.82-23.87-303.2-44.87-366.82,1-96.16-12.41-158.65-45.82-111.56-45.82-111.56,10-28.24,19.57-57.84,11-74.45,32.93-89.73c-19.09-120.28-12.4-154-10.5-178.19s9.55-69.74,6.69-83.71-25.78-39.75-28.64-60.75-15.27-41.68-60.14-50.91S1280.57,757.37,1280.57,757.37Z" transform="translate(-1106.56 -300)"/><path class="cls-5" d="M1299.5,1411.74c3.35-2.39,63.17-46.94,146.53-112.48s224.33-44,224.33-44-79.87-36.2-177.87,58-169.84,118.81-196,117C1297.26,1425.72,1299.5,1411.74,1299.5,1411.74Z" transform="translate(-1106.56 -300)"/><path class="cls-5" d="M1274.69,1221.3s29.43-13,35.16-43.59-7-63.64-8.91-66.83,33.72-183.28,21.63-259c42,129.83-12.09,246.29-8.27,267.29s23.55,31.82,17.82,76.36-41.37,51.55-40.09,56,20.44,19.09,4.49,34.36-42.26,25.7-42.26,25.7S1269.67,1257.81,1274.69,1221.3Z" transform="translate(-1106.56 -300)"/><path class="cls-5" d="M1670.36,1248.43c-3.57,1.8,25.78-47.81,9.87-93s-22.91-54.73-17.82-112,15.91-141.28,17.82-147.65-7.64,123.46-1.28,132.37,27.37-35,24.82-24.82-28,70.64-28,85.28,9.92,53.82,15.46,78.14S1690.41,1238.34,1670.36,1248.43Z" transform="translate(-1106.56 -300)"/><path class="cls-6" d="M1675.43,1246.28c-21.86.67-43.61,2.65-65.46,3.7a6.52,6.52,0,0,0-1.67-1.88c-3.12-2.34-7.15-.8-9.77,1.47a6.4,6.4,0,0,0-.72.83c-2.12.06-4.24.19-6.36.22-21.27.3-42.23,1.71-62,10.22-1.63.7-1.09,4.2.82,3.44,21.24-8.45,42.94-6.12,65-5.24-23,59.81-34.47,134.9-22.47,197.44a1.45,1.45,0,0,0,2.87-.34c.51-33.62-1-66.55,3.13-100.09,4-32.28,12.14-62.9,21.45-93.8a5.15,5.15,0,0,0,2.82,1.4,6.2,6.2,0,0,0,5.76-2.74,2.33,2.33,0,0,0,.69,1c22.79,19.5,24.27,60.15,28.67,87.6a1.22,1.22,0,0,0,2.42-.28c.07-27.75-3.78-69.58-25.83-90,20.23,0,40.94-.83,60.6-4.9C1679.17,1253.62,1679.91,1246.15,1675.43,1246.28Z" transform="translate(-1106.56 -300)"/><path class="cls-5" d="M1284,1146.53c-18.47-42.37-54.46-78.72-90.85-106.21-3.47-2.61-7.22,3.73-4,6.2,37.87,29.32,63.22,64.79,90,103.65C1281.24,1153.15,1285.22,1149.26,1284,1146.53Z" transform="translate(-1106.56 -300)"/><path class="cls-5" d="M1236,951.92c-1-3.11-5-.3-4.13,2.37,16.24,53,32.42,106.31,52.48,158,.77,2,3.15.16,2.64-1.52C1270.81,1057.57,1252.43,1005.05,1236,951.92Z" transform="translate(-1106.56 -300)"/><path class="cls-5" d="M1619.78,779.66C1572,754.49,1511.5,759.11,1460,767c-64,9.79-126.18,27.61-191.39,28.16-2.4,0-3.13,4.3-.5,4.41,58.56,2.41,115.65-12.5,172.86-22.66,29.17-5.17,58.71-9,88.39-8.72,31,.29,59.51,6.69,89.1,15.3C1620.64,784.13,1621.74,780.69,1619.78,779.66Z" transform="translate(-1106.56 -300)"/><path class="cls-5" d="M1611.84,841.86c-28.5,50.3-53,101.84-85.31,150.07a1123.27,1123.27,0,0,1-111.15,139.88c-2,2.17.39,6.29,2.73,3.79A1129.57,1129.57,0,0,0,1528.6,997.72c32.42-47.81,66-99.78,86.52-154.06C1615.93,841.49,1613.1,839.65,1611.84,841.86Z" transform="translate(-1106.56 -300)"/><path class="cls-5" d="M1620.18,893.67c-26.52,48.08-48.16,99-73.4,147.8q-38,73.46-79.93,144.77c-2,3.44,2.34,7.27,4.55,3.52q42.9-72.77,81.91-147.71c24.76-47.73,51.13-96.33,69.47-146.94C1623.41,893.39,1621.16,891.88,1620.18,893.67Z" transform="translate(-1106.56 -300)"/><path class="cls-5" d="M1603.44,1023c-.19-3.91-5.35-2-5.18,1.37,1.89,38.13,1.31,76.22,2.45,114.34.07,2.35,3.35,1.63,3.5-.41C1607,1100.11,1605.35,1061.2,1603.44,1023Z" transform="translate(-1106.56 -300)"/><path class="cls-5" d="M1707.67,872.3c-.24-2.94-4.17-2-4.37.51-3.07,38.9-6.28,76.05-16.88,113.86-.94,3.33,3.35,5,4.44,1.59C1702.72,951.2,1710.78,911.36,1707.67,872.3Z" transform="translate(-1106.56 -300)"/><path class="cls-5" d="M1460.65,845.27c-.22-2.84-4-2-4.21.49-4.73,60.79-32.1,109.43-64.71,159.63-26.63,41-52.57,82.53-62,131.19-.78,4,4.66,3.81,5.39.17,11.53-57.33,47.12-103.9,77.48-152.42C1438.32,943.25,1464.47,895.34,1460.65,845.27Z" transform="translate(-1106.56 -300)"/><path class="cls-5" d="M1444.13,1200.43c-39.77,39.1-78.79,95.3-137.81,104.79-3.32.53-3,6.5.69,5.94,28.82-4.28,52.37-20.78,74.34-39,23.87-19.8,48.94-42.22,66-68.35C1448.81,1201.57,1446.41,1198.19,1444.13,1200.43Z" transform="translate(-1106.56 -300)"/><path class="cls-5" d="M1499.23,1350.05c-1.34,40.32-21.86,74.32-41.29,108.45-18.11,31.81-36,63.8-52.58,96.43-30.58,60.13-61.51,125.42-73.81,192.22-.36,2,2.4,2.38,3,.56,11.13-34.83,20.85-69.61,34.64-103.57a1187.2,1187.2,0,0,1,50.77-107.82c17-32.22,35.63-63.45,53.71-95.07,16.19-28.33,30-57.93,31.44-91A2.94,2.94,0,1,0,1499.23,1350.05Z" transform="translate(-1106.56 -300)"/><path class="cls-5" d="M1480.5,1703.32A1537.45,1537.45,0,0,1,1492.88,1541c.34-2.62-3.16-2.52-3.49-.11a1473.09,1473.09,0,0,0-13.83,169.64c-1.18,53.78-2.25,110,6.73,163.14.38,2.26,3,1.09,2.93-.77C1484.54,1816.3,1479.22,1760.09,1480.5,1703.32Z" transform="translate(-1106.56 -300)"/><path class="cls-5" d="M1588.7,1569.22c-.54-3.8-5.57-2-5.08,1.34,15.9,109.17,40.47,216.49,76.66,320.75.75,2.16,3.46.19,2.88-1.66C1630.19,1784.94,1604.26,1677.93,1588.7,1569.22Z" transform="translate(-1106.56 -300)"/><path class="cls-5" d="M1638.6,1425.65c-.69-2.09-3.37-.19-2.78,1.6,16.76,51.24,29.31,103.42,44.25,155.16.68,2.35,4,.56,3.58-1.48C1672.8,1528.32,1655.51,1476.57,1638.6,1425.65Z" transform="translate(-1106.56 -300)"/><path class="cls-5" d="M1562.13,1826.7c-7.91,21.71-14.29,49.74-29.87,67.36-13,14.64-26.15,15.06-43.67,13.13a245.58,245.58,0,0,1-36-6.83c-41.77-11.08-80.21-32.58-112.24-61.45-1.93-1.73-4.2,2.09-2.41,3.72,39.43,35.95,88.07,59.31,141.06,66.6,18.24,2.51,38.61,6.6,52.49-8.12,17.25-18.3,28.72-49.73,33.63-73.84C1565.57,1825.22,1562.78,1824.91,1562.13,1826.7Z" transform="translate(-1106.56 -300)"/><path class="cls-5" d="M1682.7,1461.74c-17.87-34.66-40.57-66.8-58.52-101.57-1.94-3.75-7.06-.19-5.37,3.09,17.56,34.19,35.62,71.56,60.63,100.94C1681,1466,1683.69,1463.65,1682.7,1461.74Z" transform="translate(-1106.56 -300)"/><path class="cls-7" d="M1534.24,1260.11c-44,6.51-88.42,33.58-125.55,56.82-19.39,12.13-32.86,30.39-49.85,45.35-18.89,16.63-39.31,31.46-58.42,47.83-2.7,2.31-.43,8.43,3.19,6,17.35-11.72,34.42-23.71,50.7-36.92,18.88-15.32,33.71-35,53-49.64,38.46-29.14,80.53-53.54,127.43-65C1537.17,1263.92,1537,1259.7,1534.24,1260.11Z" transform="translate(-1106.56 -300)"/><path class="cls-7" d="M1667.51,1095.66c-3.56-22.79-1.37-46.71.32-69.61,2.78-37.77,20.77-75,17.2-113-.24-2.64-3.8-1.88-4,.46-1.55,24-8.46,46.36-13.94,69.66-4.31,18.34-5.94,36.8-7,55.57-1.11,19.48-2.34,39.25,1.28,58.57,3.58,19.1,13.41,35.51,20.6,53.33.88,2.18,4,.58,3.48-1.44C1681.13,1130.64,1670.49,1114.73,1667.51,1095.66Z" transform="translate(-1106.56 -300)"/><path class="cls-7" d="M1330.28,891.16c-.86-4.24-6.35-2.29-5.76,1.52,9.72,62.38-7.18,117.28-21.11,177.26-2.55,11-4.31,22.34-2.13,33.59,2.26,11.65,9.43,21.42,11,33.34,2.27,17.09-3,34-7.29,50.25-2,7.61-2.59,14.89-7.61,21.09-4.83,6-12.06,9.52-18.43,13.68-3.41,2.22-1.58,9.09,2.46,6.52,7.81-5,19.06-9.54,24-17.83,6.59-11.1,8.12-28,11-40.47,2.64-11.48,4.43-23.31,2.94-35.09-2.2-17.46-12.32-29.85-10.91-48.51s9-37,13.41-55.1c3.4-14,6.3-28.23,8.62-42.48C1335.72,956.38,1336.87,923.61,1330.28,891.16Z" transform="translate(-1106.56 -300)"/><path class="cls-2" d="M1202.81,1189.25c-1.6-2.1-4.29,1-3,2.87,7.83,11.4,13.5,24.58,22.15,35.32,1.61,2,4-.59,3.35-2.53C1220.82,1211.68,1211.18,1200.27,1202.81,1189.25Z" transform="translate(-1106.56 -300)"/><path class="cls-2" d="M1223.65,1600.27c-3.5,7.66-1.72,15.76-4.18,23.51-2.71,8.57-11.25,16.92-16.49,24.16-2.54,3.5,2,7.34,4.84,3.74l10.1-13c2.93-3.77,7.56-7.82,9.75-12,3.53-6.71,3.21-17.7,3.51-25C1231.4,1596.46,1225.68,1595.84,1223.65,1600.27Z" transform="translate(-1106.56 -300)"/><path class="cls-2" d="M1345.8,1976.18c-6.74,3.13-11.3,9.27-17.65,13.23-7.34,4.59-15.26,7.14-23.72,8.69-7,1.27-6.32,13.38,1.46,12.43a38.93,38.93,0,0,1,9.88-.12c-3.06,5.6-8.94,11.38-12,15.31l-14,18.3a2.6,2.6,0,1,0,4.11,3.17l14.22-18.15c3.78-4.83,9.74-16,15.83-17.79,2.85-.86,5.15-5.06,4.83-8.32,10-5,18.87-12.1,21.86-21.79C1351.65,1977.89,1349.24,1974.59,1345.8,1976.18Z" transform="translate(-1106.56 -300)"/><path class="cls-2" d="M1721.06,2023.89c-7.17,4.71-14.73,9.12-21.1,14.89-4.31,3.91-1.11,12.42,5,9.45l.47-.26c-1,11.36-.61,22.9-.52,34.29,0,5,6.68,2.58,6.63-1.75-.12-9.26,0-18.52-.06-27.78,0-6.07.38-6.87,4.51-10.66a102.36,102.36,0,0,1,8.35-6.5l.86-.61v0c.41-.3.84-.6,1.24-.91C1731.33,2030.28,1727.17,2019.88,1721.06,2023.89Z" transform="translate(-1106.56 -300)"/><path class="cls-2" d="M1697.55,1219.64c-6.48,9.44-8.44,23.7-11.54,34.6-1.2,4.22,4.24,6.3,5.63,2,3.63-11.17,9.93-24,9.78-35.87C1701.39,1218.14,1698.59,1218.14,1697.55,1219.64Z" transform="translate(-1106.56 -300)"/><path class="cls-2" d="M1293.79,2161q-44.51,139.09-84.67,279.85c-1.19,4.18,4.24,6.25,5.59,2,29.39-92.84,57.2-186.5,83.52-280.25C1299.17,2159.28,1294.87,2157.63,1293.79,2161Z" transform="translate(-1106.56 -300)"/><path class="cls-2" d="M1722.53,2178.21c-.35-3.42-4.48-1.65-4.42,1.16,1.56,80.63,7.47,161.07,7.06,241.8a1.7,1.7,0,1,0,3.39.1C1729.16,2340.54,1730.74,2258.64,1722.53,2178.21Z" transform="translate(-1106.56 -300)"/><path class="cls-8" d="M1233.38,2678.08c-25.5,7.2-51.47,8.41-77.83,8.15-10.77-.1-22.41-2.21-33-1.77-4.63.19-7.77-.49-10.07,2.68.46-.64,1.1-.86,1.4-1.72l.12-.35a3.68,3.68,0,0,0-1-4.11l-.34-.24c-3.87-2.72-6.88,2.48-6,5.83,3.58,14.37,37.9,11.29,47.49,11.49,27.31.6,54.16-.82,80.55-8.3C1241,2688,1240.52,2676.07,1233.38,2678.08Z" transform="translate(-1106.56 -300)"/><path class="cls-8" d="M1235.71,2649.52c-22.15-34-71.71-45.45-108.85-34.47-3,.88-2.86,6.14.66,5.54,30.25-5.12,54.69,1.4,77.64,15.28-26.4-11.2-56-13.74-84-5.52-2,.59-1.92,4,.43,3.71a166.53,166.53,0,0,1,36.88-.93c-14.64.81-30,2.75-40.58,13.21-1.66,1.64,0,4.55,2.11,2.93,15.18-11.79,48.26-11.42,66.63-8.34,12.8,2.14,23.27,9.42,35.23,13.23,1.06.65,2.14,1.18,3.2,1.86a3.21,3.21,0,0,0,3.83-.17,2.9,2.9,0,0,0,2.27-1l.06,0C1234.34,2657.54,1237.43,2652.17,1235.71,2649.52Z" transform="translate(-1106.56 -300)"/><path class="cls-8" d="M1240.48,2502.58c-20.33-13.18-44.69-19.54-68.8-19.39-3.45,0-4.59,5.1-1.54,6.62,6.38,3.19,12.7,6.51,19,9.9a120.27,120.27,0,0,1-20.29-4.59c-3.89-1.32-6.34,5.81-2.46,6.85a65.83,65.83,0,0,0,9.66,4,82.2,82.2,0,0,1,11.14,7.54c-8.49-.73-17-1.21-25.37-1.59-2.41-.11-3.81,4.52-1.18,5,9.43,1.93,18.92,3.41,28.44,4.82,2.15.32,5.67.49,9.61.8,7.24,5.38,15.07,9.8,25.36,10.4,3.1.18,5.27-3.83,4.12-6.49-3-7-8.58-8.71-15.79-9.91-4.69-.78-9.45-1.4-14.24-2-2.82-1.63-5.61-3.33-8.35-5.14,8.2,1.59,16.53,2.7,24.71,4.52,3.3,1.74,6.74,3,10.66,2.74s6.51-5.86,4-8.62c2.35,1,4.69,2,7.06,3.1C1240.62,2513.25,1244.36,2505.09,1240.48,2502.58Zm-29,.43c-3.94-2-7.74-4.19-10.79-5.79,8.1,2.56,16.09,5.55,24,8.93A112.79,112.79,0,0,0,1211.46,2503Z" transform="translate(-1106.56 -300)"/><path class="cls-8" d="M1758.54,2522.86c-6.8,1.16-13.35,2.55-19.8,4.09-5.82,0-11.71-.63-17.31-.84-6.51-.23-13-.3-19.5-.35,7.4-2.22,16.33-3.77,19.2-4.45a221.45,221.45,0,0,1,35.13-5.16c5.64-.63,7.51-11.08,1.22-10.61a235.21,235.21,0,0,0-30.47,4.3c-17.87,2.38-36.62,4.27-36.55,1.28.1-4.55,63-13.21,67.73-11.3s8.87-6.67,4.54-9.2c-11.94-7-37.13,2-49.26,5.23-9.37,2.47-32.64,5.7-34.64,17.66a2.46,2.46,0,0,0,1.42,2.62c4.2,2.1,10.6,2.11,17,1.74-6.18,2.14-12,5.25-13.66,11-.61,2.1,0,6.36,3.25,6a170.22,170.22,0,0,1,26.6-.71c-7.22,2.39-14.44,5-21.8,7.94-3.28,1.33-3.14,8,.77,6.52,12.39-4.6,25.77-9.84,39.31-13,10.74,1.26,19.49,2,29.13-3.31C1765.17,2530,1764.26,2521.89,1758.54,2522.86Z" transform="translate(-1106.56 -300)"/><path class="cls-8" d="M1887.86,2683.73c-20.19.61-40.41,1.05-60.62,1.16a182.82,182.82,0,0,1,11.8-19.48,132.62,132.62,0,0,1,10-12.33c2.34-2.56,5.73-5,7.53-7.95a3,3,0,0,0,0-3.14l-.44-.75a3,3,0,0,0-4-.78c-7.34,4.95-13.41,13.66-18.4,20.89a107.18,107.18,0,0,0-12.42,23.61h0A84.46,84.46,0,0,1,1832,2659c1.67-2.79,12.81-20.25,15.22-19.28,1.44.58,3-.68,3.42-2l.48-1.35c1.13-3.19-1.54-6.9-5-5.08-17.41,9.27-29.06,33.9-31.39,53.65-2.61,0-5.21.08-7.82.05,2.76-10.32,7.26-19.76,12.66-29,5-8.58,10.34-20.1,19-25.74,2.11,1.18,4.26-1.23,4.24-3.63l0-2.15c0-2.62-2.85-3.62-4.87-2.63-11,5.4-16.82,18-22.58,28.27a128.36,128.36,0,0,0-13.61,34.77c-6-.11-12-.19-18-.42-15.16-.6-30.14-2.37-45.08-4.33-8.83-26.87-25.68-50.92-44.9-71.31-2.77-2.94-7,1.68-4.65,4.46,17,20,28.87,42,39.6,65.53l-3.35-.45c-7.82-19.82-21.61-35.82-35.75-51.41-2.48-2.73-6.38,1.55-4.23,4.07,12.29,14.4,24.35,28.91,31.92,46.29-10.82-1.4-21.65-2.68-32.56-3.45-4.9-.35-6.94,7.89-2.27,9.7,29.63,11.48,64.49,13.77,95.88,15.41,35.93,1.87,71.88.73,107.81-.43C1894.32,2698.32,1896.61,2683.46,1887.86,2683.73Z" transform="translate(-1106.56 -300)"/></svg>